<svg xmlns="http://www.w3.org/2000/svg" viewBox="0 0 512 512">
  <path
    fill="#4B4B4B"
    d="M256 48a56 56 0 1 1 0 112 56 56 0 0 1 0-112Zm-71.7 137c20.5-20.5 54-20.5 74.5 0l29.9 29.9c7.6 7.6 19.9 7.6 27.5 0l33-33c12.5-12.5 32.8-12.5 45.3 0s12.5 32.8 0 45.3l-52.2 52.2c-22.8 22.8-59.6 22.8-82.4 0l-7.7-7.7-21.6 21.6 32.3 32.3c8.9 8.9 9 23.4.1 32.4-8.8 8.9-23.2 9-32.2.2l-54.2-53.3a56 56 0 0 1-16.6-39.8v-68.1c0-12.5 5-24.4 13.8-33.2Z"
  />
  <path
    fill="#4B4B4B"
    d="M118.2 318.5c11.8-13 31.9-13.9 45-2.1l60.4 54.8c12.9 11.6 21.2 27.4 23.3 44.6l6 48.6c2.1 17-9.9 32.5-26.9 34.6-16.9 2.1-32.4-10-34.5-26.9l-5-40.8-55.6-50.4c-13-11.8-14-31.9-2.2-45Z"
  />
</svg>
